<svg width="40" height="40" viewBox="0 0 40 40" fill="none" xmlns="http://www.w3.org/2000/svg">
<g clip-path="url(#clip0)">
<path d="M39.9801 0.0200195H0.0200195V39.9801H39.9801V0.0200195Z" stroke="#444444" stroke-width="0.1" stroke-miterlimit="10"/>
<path d="M4.01602 0.0200195H0.0200195V4.01602H4.01602V0.0200195Z" stroke="#444444" stroke-width="0.1" stroke-miterlimit="10"/>
<path d="M8.012 0.0200195H4.01599V4.01602H8.012V0.0200195Z" stroke="#444444" stroke-width="0.1" stroke-miterlimit="10"/>
<path d="M12.0081 0.0200195H8.01208V4.01602H12.0081V0.0200195Z" stroke="#444444" stroke-width="0.1" stroke-miterlimit="10"/>
<path d="M16.0041 0.0200195H12.0081V4.01602H16.0041V0.0200195Z" stroke="#444444" stroke-width="0.1" stroke-miterlimit="10"/>
<path d="M20 0.0200195H16.004V4.01602H20V0.0200195Z" stroke="#444444" stroke-width="0.1" stroke-miterlimit="10"/>
<path d="M23.996 0.0200195H20V4.01602H23.996V0.0200195Z" stroke="#444444" stroke-width="0.1" stroke-miterlimit="10"/>
<path d="M27.9921 0.0200195H23.9961V4.01602H27.9921V0.0200195Z" stroke="#444444" stroke-width="0.1" stroke-miterlimit="10"/>
<path d="M31.9881 0.0200195H27.9921V4.01602H31.9881V0.0200195Z" stroke="#444444" stroke-width="0.1" stroke-miterlimit="10"/>
<path d="M35.984 0.0200195H31.988V4.01602H35.984V0.0200195Z" stroke="#444444" stroke-width="0.1" stroke-miterlimit="10"/>
<path d="M39.98 0.0200195H35.984V4.01602H39.98V0.0200195Z" stroke="#444444" stroke-width="0.1" stroke-miterlimit="10"/>
<path d="M4.01602 4.01599H0.0200195V8.012H4.01602V4.01599Z" stroke="#444444" stroke-width="0.1" stroke-miterlimit="10"/>
<path d="M8.012 4.01599H4.01599V8.012H8.012V4.01599Z" stroke="#444444" stroke-width="0.1" stroke-miterlimit="10"/>
<path d="M12.0081 4.01599H8.01208V8.012H12.0081V4.01599Z" stroke="#444444" stroke-width="0.1" stroke-miterlimit="10"/>
<path d="M16.0041 4.01599H12.0081V8.012H16.0041V4.01599Z" stroke="#444444" stroke-width="0.1" stroke-miterlimit="10"/>
<path d="M20 4.01599H16.004V8.012H20V4.01599Z" stroke="#444444" stroke-width="0.1" stroke-miterlimit="10"/>
<path d="M23.996 4.01599H20V8.012H23.996V4.01599Z" stroke="#444444" stroke-width="0.1" stroke-miterlimit="10"/>
<path d="M27.9921 4.01599H23.9961V8.012H27.9921V4.01599Z" stroke="#444444" stroke-width="0.1" stroke-miterlimit="10"/>
<path d="M31.9881 4.01599H27.9921V8.012H31.9881V4.01599Z" stroke="#444444" stroke-width="0.1" stroke-miterlimit="10"/>
<path d="M35.984 4.01599H31.988V8.012H35.984V4.01599Z" stroke="#444444" stroke-width="0.1" stroke-miterlimit="10"/>
<path d="M39.98 4.01599H35.984V8.012H39.98V4.01599Z" stroke="#444444" stroke-width="0.1" stroke-miterlimit="10"/>
<path d="M4.01602 8.01208H0.0200195V12.0081H4.01602V8.01208Z" stroke="#444444" stroke-width="0.1" stroke-miterlimit="10"/>
<path d="M8.012 8.01208H4.01599V12.0081H8.012V8.01208Z" stroke="#444444" stroke-width="0.1" stroke-miterlimit="10"/>
<path d="M12.0081 8.01208H8.01208V12.0081H12.0081V8.01208Z" stroke="#444444" stroke-width="0.1" stroke-miterlimit="10"/>
<path d="M16.0041 8.01208H12.0081V12.0081H16.0041V8.01208Z" stroke="#444444" stroke-width="0.1" stroke-miterlimit="10"/>
<path d="M20 8.01208H16.004V12.0081H20V8.01208Z" stroke="#444444" stroke-width="0.1" stroke-miterlimit="10"/>
<path d="M23.996 8H20V11.996H23.996V8Z" stroke="#444444" stroke-width="0.1" stroke-miterlimit="10"/>
<path d="M27.9921 8.01208H23.9961V12.0081H27.9921V8.01208Z" stroke="#444444" stroke-width="0.1" stroke-miterlimit="10"/>
<path d="M31.9881 8.01208H27.9921V12.0081H31.9881V8.01208Z" stroke="#444444" stroke-width="0.1" stroke-miterlimit="10"/>
<path d="M35.984 8.01208H31.988V12.0081H35.984V8.01208Z" stroke="#444444" stroke-width="0.1" stroke-miterlimit="10"/>
<path d="M39.98 8.01208H35.984V12.0081H39.98V8.01208Z" stroke="#444444" stroke-width="0.1" stroke-miterlimit="10"/>
<path d="M4.01602 12.0081H0.0200195V16.0041H4.01602V12.0081Z" stroke="#444444" stroke-width="0.1" stroke-miterlimit="10"/>
<path d="M8.012 12.0081H4.01599V16.0041H8.012V12.0081Z" stroke="#444444" stroke-width="0.1" stroke-miterlimit="10"/>
<path d="M12.0081 12.0081H8.01208V16.0041H12.0081V12.0081Z" stroke="#444444" stroke-width="0.1" stroke-miterlimit="10"/>
<path d="M16.0041 12.0081H12.0081V16.0041H16.0041V12.0081Z" stroke="#444444" stroke-width="0.1" stroke-miterlimit="10"/>
<path d="M20 12.0081H16.004V16.0041H20V12.0081Z" stroke="#444444" stroke-width="0.1" stroke-miterlimit="10"/>
<path d="M23.996 12.0081H20V16.0041H23.996V12.0081Z" stroke="#444444" stroke-width="0.1" stroke-miterlimit="10"/>
<path d="M27.9921 12.0081H23.9961V16.0041H27.9921V12.0081Z" stroke="#444444" stroke-width="0.1" stroke-miterlimit="10"/>
<path d="M31.9881 12.0081H27.9921V16.0041H31.9881V12.0081Z" stroke="#444444" stroke-width="0.1" stroke-miterlimit="10"/>
<path d="M35.984 12.0081H31.988V16.0041H35.984V12.0081Z" stroke="#444444" stroke-width="0.1" stroke-miterlimit="10"/>
<path d="M39.98 12.0081H35.984V16.0041H39.98V12.0081Z" stroke="#444444" stroke-width="0.1" stroke-miterlimit="10"/>
<path d="M4.01602 16.004H0.0200195V20H4.01602V16.004Z" stroke="#444444" stroke-width="0.1" stroke-miterlimit="10"/>
<path d="M8.012 16.004H4.01599V20H8.012V16.004Z" stroke="#444444" stroke-width="0.1" stroke-miterlimit="10"/>
<path d="M12.0081 16.004H8.01208V20H12.0081V16.004Z" stroke="#444444" stroke-width="0.1" stroke-miterlimit="10"/>
<path d="M16.0041 16.004H12.0081V20H16.0041V16.004Z" stroke="#444444" stroke-width="0.1" stroke-miterlimit="10"/>
<path d="M20 16.004H16.004V20H20V16.004Z" stroke="#444444" stroke-width="0.1" stroke-miterlimit="10"/>
<path d="M23.996 16.004H20V20H23.996V16.004Z" stroke="#444444" stroke-width="0.1" stroke-miterlimit="10"/>
<path d="M27.9921 16.004H23.9961V20H27.9921V16.004Z" stroke="#444444" stroke-width="0.1" stroke-miterlimit="10"/>
<path d="M31.9881 16.004H27.9921V20H31.9881V16.004Z" stroke="#444444" stroke-width="0.1" stroke-miterlimit="10"/>
<path d="M35.984 16.004H31.988V20H35.984V16.004Z" stroke="#444444" stroke-width="0.1" stroke-miterlimit="10"/>
<path d="M39.98 16.004H35.984V20H39.98V16.004Z" stroke="#444444" stroke-width="0.1" stroke-miterlimit="10"/>
<path d="M4.01602 20H0.0200195V23.996H4.01602V20Z" stroke="#444444" stroke-width="0.1" stroke-miterlimit="10"/>
<path d="M8.012 20H4.01599V23.996H8.012V20Z" stroke="#444444" stroke-width="0.1" stroke-miterlimit="10"/>
<path d="M12.0081 20H8.01208V23.996H12.0081V20Z" stroke="#444444" stroke-width="0.1" stroke-miterlimit="10"/>
<path d="M16.0041 20H12.0081V23.996H16.0041V20Z" stroke="#444444" stroke-width="0.1" stroke-miterlimit="10"/>
<path d="M20 20H16.004V23.996H20V20Z" stroke="#444444" stroke-width="0.1" stroke-miterlimit="10"/>
<path d="M23.996 20H20V23.996H23.996V20Z" stroke="#444444" stroke-width="0.1" stroke-miterlimit="10"/>
<path d="M27.9921 20H23.9961V23.996H27.9921V20Z" stroke="#444444" stroke-width="0.1" stroke-miterlimit="10"/>
<path d="M31.9881 20H27.9921V23.996H31.9881V20Z" stroke="#444444" stroke-width="0.1" stroke-miterlimit="10"/>
<path d="M35.984 20H31.988V23.996H35.984V20Z" stroke="#444444" stroke-width="0.1" stroke-miterlimit="10"/>
<path d="M39.98 20H35.984V23.996H39.98V20Z" stroke="#444444" stroke-width="0.1" stroke-miterlimit="10"/>
<path d="M4.01602 23.9961H0.0200195V27.9921H4.01602V23.9961Z" stroke="#444444" stroke-width="0.1" stroke-miterlimit="10"/>
<path d="M8.012 23.9961H4.01599V27.9921H8.012V23.9961Z" stroke="#444444" stroke-width="0.1" stroke-miterlimit="10"/>
<path d="M12.0081 23.9961H8.01208V27.9921H12.0081V23.9961Z" stroke="#444444" stroke-width="0.1" stroke-miterlimit="10"/>
<path d="M16.0041 23.9961H12.0081V27.9921H16.0041V23.9961Z" stroke="#444444" stroke-width="0.1" stroke-miterlimit="10"/>
<path d="M20 23.9961H16.004V27.9921H20V23.9961Z" stroke="#444444" stroke-width="0.1" stroke-miterlimit="10"/>
<path d="M23.996 23.9961H20V27.9921H23.996V23.9961Z" stroke="#444444" stroke-width="0.1" stroke-miterlimit="10"/>
<path d="M27.9921 23.9961H23.9961V27.9921H27.9921V23.9961Z" stroke="#444444" stroke-width="0.1" stroke-miterlimit="10"/>
<path d="M31.9881 23.9961H27.9921V27.9921H31.9881V23.9961Z" stroke="#444444" stroke-width="0.1" stroke-miterlimit="10"/>
<path d="M35.984 23.9961H31.988V27.9921H35.984V23.9961Z" stroke="#444444" stroke-width="0.1" stroke-miterlimit="10"/>
<path d="M39.98 23.9961H35.984V27.9921H39.98V23.9961Z" stroke="#444444" stroke-width="0.1" stroke-miterlimit="10"/>
<path d="M4.01602 27.9921H0.0200195V31.9881H4.01602V27.9921Z" stroke="#444444" stroke-width="0.1" stroke-miterlimit="10"/>
<path d="M8.012 27.9921H4.01599V31.9881H8.012V27.9921Z" stroke="#444444" stroke-width="0.1" stroke-miterlimit="10"/>
<path d="M12.0081 27.9921H8.01208V31.9881H12.0081V27.9921Z" stroke="#444444" stroke-width="0.1" stroke-miterlimit="10"/>
<path d="M16.0041 27.9921H12.0081V31.9881H16.0041V27.9921Z" stroke="#444444" stroke-width="0.1" stroke-miterlimit="10"/>
<path d="M20 27.9921H16.004V31.9881H20V27.9921Z" stroke="#444444" stroke-width="0.1" stroke-miterlimit="10"/>
<path d="M23.996 27.9921H20V31.9881H23.996V27.9921Z" stroke="#444444" stroke-width="0.1" stroke-miterlimit="10"/>
<path d="M27.9921 27.9921H23.9961V31.9881H27.9921V27.9921Z" stroke="#444444" stroke-width="0.1" stroke-miterlimit="10"/>
<path d="M31.9881 27.9921H27.9921V31.9881H31.9881V27.9921Z" stroke="#444444" stroke-width="0.1" stroke-miterlimit="10"/>
<path d="M35.984 27.9921H31.988V31.9881H35.984V27.9921Z" stroke="#444444" stroke-width="0.1" stroke-miterlimit="10"/>
<path d="M39.98 27.9921H35.984V31.9881H39.98V27.9921Z" stroke="#444444" stroke-width="0.1" stroke-miterlimit="10"/>
<path d="M4.01602 31.988H0.0200195V35.984H4.01602V31.988Z" stroke="#444444" stroke-width="0.1" stroke-miterlimit="10"/>
<path d="M8.012 31.988H4.01599V35.984H8.012V31.988Z" stroke="#444444" stroke-width="0.1" stroke-miterlimit="10"/>
<path d="M12.0081 31.988H8.01208V35.984H12.0081V31.988Z" stroke="#444444" stroke-width="0.1" stroke-miterlimit="10"/>
<path d="M16.0041 31.988H12.0081V35.984H16.0041V31.988Z" stroke="#444444" stroke-width="0.1" stroke-miterlimit="10"/>
<path d="M20 31.988H16.004V35.984H20V31.988Z" stroke="#444444" stroke-width="0.1" stroke-miterlimit="10"/>
<path d="M23.996 31.988H20V35.984H23.996V31.988Z" stroke="#444444" stroke-width="0.1" stroke-miterlimit="10"/>
<path d="M27.9921 31.988H23.9961V35.984H27.9921V31.988Z" stroke="#444444" stroke-width="0.1" stroke-miterlimit="10"/>
<path d="M31.9881 31.988H27.9921V35.984H31.9881V31.988Z" stroke="#444444" stroke-width="0.1" stroke-miterlimit="10"/>
<path d="M35.984 31.988H31.988V35.984H35.984V31.988Z" stroke="#444444" stroke-width="0.1" stroke-miterlimit="10"/>
<path d="M39.98 31.988H35.984V35.984H39.98V31.988Z" stroke="#444444" stroke-width="0.1" stroke-miterlimit="10"/>
<path d="M4.01602 35.984H0.0200195V39.98H4.01602V35.984Z" stroke="#444444" stroke-width="0.1" stroke-miterlimit="10"/>
<path d="M8.012 35.984H4.01599V39.98H8.012V35.984Z" stroke="#444444" stroke-width="0.1" stroke-miterlimit="10"/>
<path d="M12.0081 35.984H8.01208V39.98H12.0081V35.984Z" stroke="#444444" stroke-width="0.1" stroke-miterlimit="10"/>
<path d="M16.0041 35.984H12.0081V39.98H16.0041V35.984Z" stroke="#444444" stroke-width="0.1" stroke-miterlimit="10"/>
<path d="M20 35.984H16.004V39.98H20V35.984Z" stroke="#444444" stroke-width="0.1" stroke-miterlimit="10"/>
<path d="M23.996 35.984H20V39.98H23.996V35.984Z" stroke="#444444" stroke-width="0.1" stroke-miterlimit="10"/>
<path d="M27.9921 35.984H23.9961V39.98H27.9921V35.984Z" stroke="#444444" stroke-width="0.1" stroke-miterlimit="10"/>
<path d="M31.9881 35.984H27.9921V39.98H31.9881V35.984Z" stroke="#444444" stroke-width="0.1" stroke-miterlimit="10"/>
<path d="M35.984 35.984H31.988V39.98H35.984V35.984Z" stroke="#444444" stroke-width="0.1" stroke-miterlimit="10"/>
<path d="M39.98 35.984H35.984V39.98H39.98V35.984Z" stroke="#444444" stroke-width="0.1" stroke-miterlimit="10"/>
<g opacity="0.5">
<path opacity="0.5" d="M27.984 27.9841H16.0079V39.9602H27.984V27.9841Z" fill="#24EA8B"/>
<path opacity="0.5" d="M16.008 39.9602L0.039917 27.9841H16.008V39.9602Z" fill="#24EA8B"/>
</g>
<path opacity="0.2" d="M12.016 27.9841H0.039917V39.9602H12.016V27.9841Z" fill="#24EA8B"/>
<path opacity="0.2" d="M12.016 39.9602L27.9841 27.9841H12.0399L12.016 39.9602Z" fill="#24EA8B"/>
<g opacity="0.3">
<path opacity="0.3" d="M39.9601 16.0081H27.984V27.9841H39.9601V16.0081Z" fill="#24EA8B"/>
<path opacity="0.3" d="M27.984 14.0121V0.0400391L39.9601 16.0081H27.984V27.9841V14.0121Z" fill="#24EA8B"/>
</g>
<g opacity="0.2">
<path opacity="0.2" d="M39.9601 0.0400391H27.984V12.0161H39.9601V0.0400391Z" fill="#24EA8B"/>
<path opacity="0.2" d="M27.984 12.0161H39.9601L27.984 27.9842V12.0161Z" fill="#24EA8B"/>
</g>
<g opacity="0.4">
<path opacity="0.4" d="M39.9601 27.9841H27.984V39.9602H39.9601V27.9841Z" fill="#24EA8B"/>
<path opacity="0.4" d="M27.984 27.9841H39.9601L27.984 0.0400391V27.9841Z" fill="#24EA8B"/>
<path opacity="0.4" d="M27.984 27.9841H0.039917L27.984 39.9602V27.9841Z" fill="#24EA8B"/>
</g>
<path d="M25.988 2.03592V25.988H2.03592V2.03592H25.988ZM27.984 0.039917H0.039917V27.984H27.984V0.039917Z" fill="white"/>
<path d="M40 28H28V40H40V28Z" fill="#161616"/>
<path d="M16.4072 6.02795H11.6168V21.996H16.4072V6.02795Z" fill="white"/>
<g opacity="0.4">
<path opacity="0.8" d="M0.139917 39.8601V28.084H11.916V39.8601H0.139917Z" stroke="#24EA8B" stroke-width="0.2" stroke-miterlimit="10"/>
<path opacity="0.8" d="M16.1079 39.8601V28.084H27.884V39.8601H16.1079Z" stroke="#24EA8B" stroke-width="0.2" stroke-miterlimit="10"/>
<path opacity="0.8" d="M28.084 27.8841V16.1081H39.8601V27.8841H28.084Z" stroke="#24EA8B" stroke-width="0.2" stroke-miterlimit="10"/>
<path opacity="0.8" d="M28.084 11.916V0.139917H39.8601V11.916H28.084Z" stroke="#24EA8B" stroke-width="0.2" stroke-miterlimit="10"/>
</g>
<rect x="28.25" y="28.25" width="11.5" height="11.5" stroke="white" stroke-width="0.5"/>
<path d="M37.8 31H35.8V33.8663L31.952 31H30.2V36.5273H32.2V33.657L36.048 36.5273H37.8V31Z" fill="white"/>
</g>
<defs>
<clipPath id="clip0">
<rect width="40" height="40" fill="white"/>
</clipPath>
</defs>
</svg>
