<svg width="114" height="10" viewBox="0 0 114 10" fill="none" xmlns="http://www.w3.org/2000/svg">
<path d="M65.0908 2.75465H70.0877V9.61657H72.2293V2.75465H77.2298V0.662598H65.0908V2.75465Z" fill="white"/>
<path d="M2.14152 0.669434H0V9.61992H2.14152V0.669434Z" fill="white"/>
<path d="M81.2167 0.666016H79.0752V9.61999H81.2167V0.666016Z" fill="white"/>
<path d="M60.808 1.0112C59.566 0.666016 57.942 0.666016 56.2252 0.666016H49.0869V1.71204V7.63952V9.61999H51.2284V7.63952H56.2252C57.942 7.63952 59.566 7.63951 60.808 7.29433C62.921 6.70855 63.3635 5.26155 63.3635 4.15277C63.3635 3.04398 62.9174 1.59698 60.808 1.0112ZM60.2227 5.28247C59.2697 5.54747 57.7885 5.54747 56.2252 5.54747H51.2284V2.75807H56.2252C57.7885 2.75807 59.2697 2.75807 60.2227 3.02306C60.8865 3.20786 61.222 3.43101 61.222 4.15277C61.222 4.87452 60.883 5.09767 60.2227 5.28247Z" fill="white"/>
<path d="M23.0746 2.93571C23.9062 2.53822 25.1269 2.34645 26.8044 2.34645C28.4819 2.34645 29.699 2.53822 30.5342 2.93571C30.6199 2.97406 30.6984 3.0159 30.7733 3.06123L32.8613 2.0431C32.4901 1.64909 32.0261 1.31785 31.4729 1.05635C30.3343 0.515901 28.8103 0.254395 26.8044 0.254395C24.7985 0.254395 23.2709 0.515901 22.1395 1.05286C20.5191 1.82343 19.666 3.17281 19.666 4.96151C19.666 6.75021 20.5226 8.09958 22.1395 8.87016C23.2709 9.40712 24.7985 9.66862 26.8044 9.66862C28.8103 9.66862 30.3379 9.40712 31.4693 8.87016C31.9976 8.61911 32.4473 8.3053 32.8114 7.93222L30.6984 6.90363C30.6449 6.93152 30.5877 6.9629 30.5306 6.9908C29.6955 7.38829 28.4784 7.58006 26.8008 7.58006C25.1233 7.58006 23.9062 7.38829 23.071 6.9908C22.193 6.57587 21.804 5.94826 21.804 4.96499C21.804 3.98173 22.1966 3.35063 23.0746 2.93571Z" fill="white"/>
<path d="M95.2977 0.875174C94.1663 0.27894 92.6422 0 90.5007 0C88.3592 0 86.8316 0.27894 85.7001 0.875174C84.9506 1.26918 84.3724 1.80962 83.9798 2.48257C83.5693 3.1834 83.3623 4.03068 83.3623 5C83.3623 5.96932 83.5693 6.8166 83.9798 7.51743C84.3724 8.18689 84.9506 8.72734 85.7001 9.12483C86.8316 9.72106 88.3556 10 90.5007 10C92.6458 10 94.1698 9.72106 95.3013 9.12483C96.0508 8.73082 96.629 8.19038 97.0216 7.51743C97.4321 6.8166 97.6391 5.96932 97.6391 5C97.6391 4.03068 97.4321 3.1834 97.0216 2.48257C96.6254 1.80962 96.0472 1.26918 95.2977 0.875174ZM94.2805 7.28382C93.4845 7.70223 92.2496 7.90795 90.4971 7.90795C88.7446 7.90795 87.5097 7.70572 86.7138 7.28382C85.875 6.841 85.5002 6.13668 85.5002 5C85.5002 3.86332 85.875 3.159 86.7138 2.71618C87.5097 2.29777 88.7446 2.09205 90.4971 2.09205C92.2496 2.09205 93.4845 2.29428 94.2805 2.71618C95.1192 3.159 95.494 3.86332 95.494 5C95.4976 6.13668 95.1228 6.841 94.2805 7.28382Z" fill="white"/>
<path d="M37.1054 6.05653H45.5607V4.31316H37.1054V2.75807H46.9563V0.666016H34.9639V9.70716H46.9884V7.61511H37.1054V6.05653Z" fill="white"/>
<path d="M111.858 0.669434V7.51741L102.571 0.669434H99.7227V9.61643H101.864V2.76846L111.151 9.61643H113.999V0.669434H111.858Z" fill="white"/>
<path d="M16.2329 7.51741L6.94587 0.669434H4.09766V9.61643H6.23917V2.76846L15.5226 9.61643H18.3744V0.669434H16.2329V7.51741Z" fill="white"/>
</svg>
