<svg width="52" height="32" viewBox="0 0 52 32" fill="none" xmlns="http://www.w3.org/2000/svg">
<path d="M0 16C0 7.16344 7.16344 0 16 0H36C44.8366 0 52 7.16344 52 16C52 24.8366 44.8366 32 36 32H16C7.16344 32 0 24.8366 0 16Z" fill="#363636"/>
<path d="M16.55 18.22L14.408 18.934V11.836H13.386V18.682C13.386 19.228 13.106 19.494 12.91 19.62C13.05 19.844 13.26 20.306 13.33 20.572C13.596 20.348 14.002 20.152 16.55 19.214V23.092H17.572V10.506H16.55V18.22ZM20.218 13.978H23.242C22.948 15.742 22.5 17.268 21.828 18.528C21.086 17.24 20.54 15.756 20.134 14.188L20.218 13.978ZM25.328 13.978V12.998H20.54C20.764 12.186 20.974 11.332 21.128 10.464L20.064 10.282C19.672 12.704 18.93 14.986 17.74 16.4C17.964 16.596 18.328 17.058 18.482 17.268C18.888 16.75 19.266 16.148 19.588 15.476C20.008 16.946 20.568 18.29 21.254 19.466C20.442 20.628 19.364 21.552 17.964 22.238C18.188 22.448 18.524 22.868 18.636 23.092C19.966 22.378 21.016 21.482 21.842 20.376C22.64 21.482 23.592 22.392 24.726 23.022C24.88 22.742 25.216 22.378 25.454 22.168C24.25 21.58 23.256 20.642 22.43 19.494C23.326 17.996 23.9 16.19 24.292 13.978H25.328ZM31.6 19.718H32.748V20.74H31.6V19.718ZM32.748 16.134V17.114H31.6V16.134H32.748ZM34.19 19.032H31.6V17.814H34.19V19.032ZM37.648 15.42C37.396 16.638 37.06 17.744 36.612 18.738C36.402 17.618 36.262 16.232 36.178 14.552H39.286V13.656H38.376L38.754 13.348C38.474 13.012 37.872 12.564 37.382 12.284L36.766 12.76C37.172 13.012 37.606 13.348 37.914 13.656H36.15C36.15 13.362 36.136 13.054 36.136 12.746H35.758V12.144H39.132V11.262H35.758V10.296H34.736V11.262H31.222V10.296H30.2V11.262H26.896V12.144H30.2V13.124H31.222V12.144H34.736V13.152H35.226L35.24 13.656H29.22V16.092H28.044V13.726H27.246V17.408H28.044V16.96H29.22V17.492C29.22 17.688 29.22 17.912 29.22 18.122H26.63V18.99H27.4V19.606C27.4 20.474 27.274 21.72 26.532 22.63C26.714 22.728 27.022 22.924 27.162 23.064C28.03 22.084 28.184 20.628 28.184 19.634V18.99H29.178C29.108 20.25 28.898 21.594 28.31 22.644C28.534 22.728 28.94 22.952 29.108 23.092C29.962 21.538 30.102 19.2 30.102 17.492V14.552H35.282C35.394 16.764 35.632 18.57 35.968 19.942C35.702 20.376 35.394 20.768 35.072 21.146V20.74H33.504V19.718H34.96V17.114H33.504V16.134H34.96V15.42H30.816V22.28H31.6V21.468H34.764C34.414 21.832 34.022 22.154 33.602 22.448C33.84 22.602 34.218 22.91 34.372 23.092C35.1 22.532 35.744 21.86 36.304 21.09C36.78 22.392 37.41 23.078 38.18 23.078C38.992 23.078 39.342 22.742 39.496 20.866C39.258 20.81 38.95 20.6 38.754 20.404C38.684 21.79 38.544 22.154 38.25 22.168C37.788 22.168 37.312 21.496 36.92 20.124C37.662 18.836 38.208 17.31 38.586 15.574L37.648 15.42Z" fill="#C6C6C6"/>
</svg>
