<svg width="66" height="32" viewBox="0 0 66 32" fill="none" xmlns="http://www.w3.org/2000/svg">
<path d="M0 16C0 7.16344 7.16344 0 16 0H50C58.8366 0 66 7.16344 66 16C66 24.8366 58.8366 32 50 32H16C7.16344 32 0 24.8366 0 16Z" fill="black"/>
<path d="M16.956 21.65C15.444 21.65 15.136 21.454 15.136 20.572V16.876H22.444V17.562H23.508V11.164H13.344V12.186H22.444V15.854H15.136V13.558H14.086V20.558C14.086 22.28 14.786 22.672 17.026 22.672H22.262C24.544 22.672 25.006 21.916 25.272 19.354C24.964 19.298 24.502 19.13 24.222 18.934C24.026 21.188 23.802 21.65 22.276 21.65H16.956ZM30.55 18.22L28.408 18.934V11.836H27.386V18.682C27.386 19.228 27.106 19.494 26.91 19.62C27.05 19.844 27.26 20.306 27.33 20.572C27.596 20.348 28.002 20.152 30.55 19.214V23.092H31.572V10.506H30.55V18.22ZM34.218 13.978H37.242C36.948 15.742 36.5 17.268 35.828 18.528C35.086 17.24 34.54 15.756 34.134 14.188L34.218 13.978ZM39.328 13.978V12.998H34.54C34.764 12.186 34.974 11.332 35.128 10.464L34.064 10.282C33.672 12.704 32.93 14.986 31.74 16.4C31.964 16.596 32.328 17.058 32.482 17.268C32.888 16.75 33.266 16.148 33.588 15.476C34.008 16.946 34.568 18.29 35.254 19.466C34.442 20.628 33.364 21.552 31.964 22.238C32.188 22.448 32.524 22.868 32.636 23.092C33.966 22.378 35.016 21.482 35.842 20.376C36.64 21.482 37.592 22.392 38.726 23.022C38.88 22.742 39.216 22.378 39.454 22.168C38.25 21.58 37.256 20.642 36.43 19.494C37.326 17.996 37.9 16.19 38.292 13.978H39.328ZM45.6 19.718H46.748V20.74H45.6V19.718ZM46.748 16.134V17.114H45.6V16.134H46.748ZM48.19 19.032H45.6V17.814H48.19V19.032ZM51.648 15.42C51.396 16.638 51.06 17.744 50.612 18.738C50.402 17.618 50.262 16.232 50.178 14.552H53.286V13.656H52.376L52.754 13.348C52.474 13.012 51.872 12.564 51.382 12.284L50.766 12.76C51.172 13.012 51.606 13.348 51.914 13.656H50.15C50.15 13.362 50.136 13.054 50.136 12.746H49.758V12.144H53.132V11.262H49.758V10.296H48.736V11.262H45.222V10.296H44.2V11.262H40.896V12.144H44.2V13.124H45.222V12.144H48.736V13.152H49.226L49.24 13.656H43.22V16.092H42.044V13.726H41.246V17.408H42.044V16.96H43.22V17.492C43.22 17.688 43.22 17.912 43.22 18.122H40.63V18.99H41.4V19.606C41.4 20.474 41.274 21.72 40.532 22.63C40.714 22.728 41.022 22.924 41.162 23.064C42.03 22.084 42.184 20.628 42.184 19.634V18.99H43.178C43.108 20.25 42.898 21.594 42.31 22.644C42.534 22.728 42.94 22.952 43.108 23.092C43.962 21.538 44.102 19.2 44.102 17.492V14.552H49.282C49.394 16.764 49.632 18.57 49.968 19.942C49.702 20.376 49.394 20.768 49.072 21.146V20.74H47.504V19.718H48.96V17.114H47.504V16.134H48.96V15.42H44.816V22.28H45.6V21.468H48.764C48.414 21.832 48.022 22.154 47.602 22.448C47.84 22.602 48.218 22.91 48.372 23.092C49.1 22.532 49.744 21.86 50.304 21.09C50.78 22.392 51.41 23.078 52.18 23.078C52.992 23.078 53.342 22.742 53.496 20.866C53.258 20.81 52.95 20.6 52.754 20.404C52.684 21.79 52.544 22.154 52.25 22.168C51.788 22.168 51.312 21.496 50.92 20.124C51.662 18.836 52.208 17.31 52.586 15.574L51.648 15.42Z" fill="#EFEFEF"/>
</svg>
