<svg width="169" height="40" viewBox="0 0 169 40" fill="none" xmlns="http://www.w3.org/2000/svg">
<g clip-path="url(#clip0)">
<path fill-rule="evenodd" clip-rule="evenodd" d="M66.1363 36.4993C70.5574 38.8842 76.5268 40 84.895 40C93.2771 40 99.2325 38.8842 103.654 36.4993C106.583 34.9093 108.842 32.7476 110.376 30.0697C111.98 27.2664 112.789 23.8773 112.789 20C112.789 16.1227 111.98 12.7336 110.376 9.93027C108.842 7.23849 106.583 5.07671 103.654 3.5007C99.2325 1.11576 93.2631 0 84.895 0C76.5268 0 70.5714 1.11576 66.1363 3.5007C63.2074 5.09066 60.948 7.25244 59.4138 9.93027C57.8099 12.7336 57.001 16.1227 57.001 20C57.001 23.8773 57.8099 27.2664 59.4138 30.0697C60.948 32.7615 63.2074 34.9233 66.1363 36.4993ZM70.1111 10.8647C73.2213 9.17713 78.0609 8.3682 84.895 8.3682C86.9034 8.3682 88.7379 8.43779 90.4062 8.57871L69.9425 29.0423C66.7833 27.2659 65.3692 24.468 65.3692 20C65.3692 15.4533 66.8336 12.636 70.1111 10.8647ZM99.8564 10.9628L79.3991 31.4201C81.0633 31.5615 82.8927 31.6318 84.895 31.6318C91.729 31.6318 96.5686 30.8229 99.6788 29.1353C102.956 27.364 104.421 24.5467 104.421 20C104.421 15.5363 103.009 12.7394 99.8564 10.9628ZM159.623 1.86914H151.255V22.5247H132.455L140.725 1.86914H131.716L120.098 30.8929H151.255V38.1313H159.623V30.8929H168.006V22.5247H159.623V1.86914ZM39.5254 1.86914H31.1572V22.5247H12.357L20.6276 1.86914H11.6179L0 30.8929H31.1572V38.1313H39.5254V30.8929H47.908V22.5247H39.5254V1.86914Z" fill="#C6C6C6"/>
</g>
<defs>
<clipPath id="clip0">
<rect width="168.006" height="40" fill="white"/>
</clipPath>
</defs>
</svg>
