<svg width="165" height="40" viewBox="0 0 165 40" fill="none" xmlns="http://www.w3.org/2000/svg">
<path fill-rule="evenodd" clip-rule="evenodd" d="M64.3794 36.4993C68.8006 38.8842 74.7699 40 83.1381 40C91.5063 40 97.4756 38.8842 101.897 36.4993C104.826 34.9093 107.085 32.7476 108.619 30.0697C110.223 27.2664 111.032 23.8773 111.032 20C111.032 16.1227 110.223 12.7336 108.619 9.93027C107.085 7.23849 104.826 5.07671 101.897 3.5007C97.4756 1.11576 91.5063 0 83.1381 0C74.7699 0 68.8006 1.11576 64.3794 3.5007C61.4506 5.09066 59.1911 7.25244 57.657 9.93027C56.0531 12.7336 55.2441 16.1227 55.2441 20C55.2441 23.8773 56.0531 27.2664 57.657 30.0697C59.1911 32.7615 61.4506 34.9233 64.3794 36.4993ZM68.3543 10.8647C71.4645 9.17713 76.3041 8.3682 83.1381 8.3682C85.1424 8.3682 86.9751 8.43778 88.643 8.57869L68.1816 29.0401C65.0253 27.2635 63.6123 24.4661 63.6123 20C63.6123 15.4533 65.0768 12.636 68.3543 10.8647ZM77.6364 31.4196L98.0955 10.9605C101.251 12.737 102.664 15.5344 102.664 20C102.664 24.5467 101.199 27.364 97.9219 29.1353C94.8118 30.8229 89.9722 31.6318 83.1381 31.6318C81.1335 31.6318 79.3022 31.5613 77.6364 31.4196ZM31.7573 38.5912H0V30.223H31.7573C34.6722 30.223 36.7364 29.9022 37.9079 29.2746L37.9143 29.2711C38.402 29.0064 39.0795 28.6387 39.0795 26.7362C39.0795 24.8338 38.402 24.466 37.9143 24.2013L37.9079 24.1979C36.7364 23.5703 34.6722 23.2495 31.7573 23.2495H6.96513L12.8229 1.39453H43.4449V9.76273H19.2385L17.8717 14.8813H31.7573C36.1925 14.8813 39.4003 15.5089 41.8828 16.8339C44.4212 18.2007 47.4477 21.0319 47.4477 26.7362C47.4477 32.4406 44.4212 35.2579 41.8828 36.6386C39.4003 37.9775 36.1925 38.5912 31.7573 38.5912ZM149.009 39.0097H117.252V30.6415H149.009C151.924 30.6415 153.988 30.3207 155.16 29.6931L155.166 29.6897C155.654 29.425 156.331 29.0572 156.331 27.1548C156.331 25.2523 155.654 24.8846 155.166 24.6199L155.16 24.6164C153.988 23.9888 151.924 23.668 149.009 23.668H133.988V15.2998H142.252L150.432 9.35844H125.62V0.990234H163.291V10.3487L155.595 15.949C156.927 16.2645 158.095 16.6972 159.135 17.2524C161.673 18.6192 164.7 21.4504 164.7 27.1548C164.7 32.8591 161.673 35.6764 159.135 37.0571C156.652 38.3821 153.43 39.0097 149.009 39.0097Z" fill="#C6C6C6"/>
</svg>
