<svg width="165" height="16" viewBox="0 0 165 16" fill="none" xmlns="http://www.w3.org/2000/svg">
<path d="M124.668 0L113.275 15.9875H117.864L119.719 13.3852C121.966 13.7837 124.251 13.9829 126.573 13.9829C128.927 13.9829 131.305 13.7774 133.708 13.3665L135.663 15.9875H140.326L128.391 0H124.668ZM122.141 9.97354L126.549 3.78521L131.156 9.96109C128.099 10.3409 125.086 10.3409 122.141 9.97354Z" fill="#262626"/>
<path d="M98.104 7.90661L90.1601 0H85.6465V15.9875H89.3819V4.49494L98.104 13.1735L106.82 4.49494V15.9875H110.555V0H106.042L98.104 7.90661Z" fill="#262626"/>
<path d="M155.865 7.92529L164.5 0H158.972L153.12 5.37276L147.361 0H141.882L150.362 7.90661L141.559 15.9875H147.081L153.101 10.4591L159.028 15.9875H164.506L155.865 7.92529Z" fill="#262626"/>
<path d="M81.9984 6.23203C81.9984 4.25226 81.2264 1.6686 77.5408 0.62269C75.3743 0.00634766 72.5416 0.00634766 69.5471 0.00634766H57.0957V1.87405V12.4577V15.9939H60.8311V12.4577H69.5471C71.2093 12.4577 72.828 12.4577 74.3035 12.3519L77.3354 15.9939H82.1977L78.4747 11.5239C81.3572 10.3285 81.9984 8.03125 81.9984 6.23203ZM60.8311 8.7223V3.74176H69.5471C72.2739 3.74176 74.8576 3.74176 76.5198 4.21491C77.6778 4.54487 78.263 4.94331 78.263 6.23203C78.263 7.52074 77.6778 7.91919 76.5198 8.24915C74.8576 8.7223 72.2739 8.7223 69.5471 8.7223H60.8311Z" fill="#262626"/>
<path d="M20.4451 0.62269C18.2786 0.00634766 15.4459 0.00634766 12.4514 0.00634766H0V1.87405V12.4577V15.9939H3.73541V12.4577H12.4514C15.4459 12.4577 18.2786 12.4577 20.4451 11.8414C24.1307 10.7955 24.9027 8.21179 24.9027 6.23203C24.9027 4.25226 24.1307 1.6686 20.4451 0.62269ZM19.4241 8.24915C17.7619 8.7223 15.1782 8.7223 12.4514 8.7223H3.73541V3.74176H12.4514C15.1782 3.74176 17.7619 3.74176 19.4241 4.21491C20.5821 4.54487 21.1673 4.94331 21.1673 6.23203C21.1673 7.52074 20.5821 7.91919 19.4241 8.24915Z" fill="#262626"/>
<path d="M48.5294 0.00634766H28.5449V6.13864V9.87405V16.0001H48.5232C51.2438 16.0001 53.4539 13.7838 53.4539 11.0694C53.4539 9.91141 53.0492 8.84682 52.3831 8.00635C53.0555 7.16588 53.4539 6.10129 53.4539 4.94331C53.4601 2.21646 51.25 0.00634766 48.5294 0.00634766ZM32.2803 3.74176H48.5232C49.1831 3.74176 49.7185 4.27717 49.7185 4.93709C49.7185 5.59701 49.1831 6.13242 48.5232 6.13242H32.2803V3.74176ZM48.5294 12.2647H32.2803V9.86783H48.5232C49.1831 9.86783 49.7185 10.4032 49.7185 11.0632C49.7247 11.7293 49.1893 12.2647 48.5294 12.2647Z" fill="#262626"/>
</svg>
